<?xml version="1.0" encoding="utf-8"?>
<!-- Generator: Adobe Illustrator 24.2.0, SVG Export Plug-In . SVG Version: 6.00 Build 0)  -->
<svg version="1.1" id="Capa_1" xmlns="http://www.w3.org/2000/svg" xmlns:xlink="http://www.w3.org/1999/xlink" x="0px" y="0px"
	 viewBox="0 0 512 512" style="enable-background:new 0 0 512 512;" xml:space="preserve">
<style type="text/css">
	.st0{fill:#00C8B9;}
</style>
<path class="st0" d="M446.1,352.1c-31.1,0-61-5-88.9-14.2c-8.7-2.7-18.4-0.7-25.4,6l-54.8,54.8c-70.4-35.8-128.2-93.3-164-163.8
	l54.8-55c7-6.7,9-16.4,6.2-25.1c-9.2-27.9-14.2-57.7-14.2-88.9c0-13.7-11.2-24.9-24.9-24.9H47.9C34.2,41,23,52.2,23,65.9
	C23,299.6,212.4,489,446.1,489c13.7,0,24.9-11.2,24.9-24.9V377C471,363.3,459.8,352.1,446.1,352.1z M247,41v248.9l74.7-74.7H471V41
	H247z"/>
</svg>
