<?xml version="1.0" encoding="utf-8"?>
<!-- Generator: Adobe Illustrator 24.2.0, SVG Export Plug-In . SVG Version: 6.00 Build 0)  -->
<svg version="1.1" id="Capa_1" xmlns="http://www.w3.org/2000/svg" xmlns:xlink="http://www.w3.org/1999/xlink" x="0px" y="0px"
	 viewBox="0 0 512 512" style="enable-background:new 0 0 512 512;" xml:space="preserve">
<style type="text/css">
	.st0{fill:#00C8B9;}
</style>
<g>
	<path class="st0" d="M255,295c-109,0-197.3-35.7-197.3-79.8V295c0,43.9,88.3,79.7,197.3,79.7c109,0,197.3-35.8,197.3-79.7v-79.8
		C452.3,259.3,364,295,255,295L255,295z M255,295"/>
	<path class="st0" d="M255,414.6c-109,0-197.3-35.7-197.3-79.6v79.6c0,43.9,88.3,79.6,197.3,79.6c109,0,197.3-35.7,197.3-79.6V335
		C452.3,378.9,364,414.6,255,414.6L255,414.6z M255,414.6"/>
	<path class="st0" d="M255,16.1c-109,0-197.3,35.7-197.3,79.8v79.6c0,44.1,88.3,79.6,197.3,79.6c109,0,197.3-35.5,197.3-79.6V95.9
		C452.3,51.8,364,16.1,255,16.1L255,16.1z M255,155.6c-108.4,0-177.6-35.5-177.6-59.7c0-24.5,69.3-59.8,177.6-59.8
		c108.4,0,177.6,35.3,177.6,59.8C432.6,120.1,363.4,155.6,255,155.6L255,155.6z M255,155.6"/>
</g>
</svg>
