<?xml version="1.0" encoding="utf-8"?>
<!-- Generator: Adobe Illustrator 24.2.0, SVG Export Plug-In . SVG Version: 6.00 Build 0)  -->
<svg version="1.1" id="Capa_1" xmlns="http://www.w3.org/2000/svg" xmlns:xlink="http://www.w3.org/1999/xlink" x="0px" y="0px"
	 viewBox="0 0 498.6 498.6" style="enable-background:new 0 0 498.6 498.6;" xml:space="preserve">
<style type="text/css">
	.st0{fill:#00C8B9;}
</style>
<path class="st0" d="M373.8,176.6h-20.8v-41.5c0-57.3-46.5-103.8-103.8-103.8c-57.3,0-103.8,46.5-103.8,103.8v41.5h-20.8
	c-22.8,0-41.5,18.7-41.5,41.5v207.6c0,22.8,18.7,41.5,41.5,41.5h249.1c22.8,0,41.5-18.7,41.5-41.5V218.2
	C415.4,195.3,396.7,176.6,373.8,176.6z M290.7,325.7c-5.9,8.5-13.6,14.6-23.1,18.4v34.6c0,5-1.7,9.3-5.1,13
	c-3.4,3.7-7.8,5.5-13.1,5.5c-5.3,0-9.7-1.8-13.1-5.5c-3.4-3.6-5.1-8-5.1-13v-34.6c-9.5-3.5-17.2-9.4-23.1-17.9
	c-5.9-8.4-8.9-18.9-8.9-31.4c0-12.5,4.9-23.6,14.6-33.4c9.7-9.8,21.5-14.7,35.4-14.7c13.9,0,25.8,4.9,35.7,14.7
	c9.9,9.8,14.9,20.8,14.9,33.1C299.5,306.9,296.6,317.2,290.7,325.7z M313.6,176.6H184.9v-41.5c0-35.5,28.9-64.4,64.4-64.4
	s64.3,28.9,64.3,64.4V176.6z"/>
</svg>
