<?xml version="1.0" encoding="utf-8"?>
<!-- Generator: Adobe Illustrator 24.2.0, SVG Export Plug-In . SVG Version: 6.00 Build 0)  -->
<svg version="1.1" id="Capa_1" xmlns="http://www.w3.org/2000/svg" xmlns:xlink="http://www.w3.org/1999/xlink" x="0px" y="0px"
	 viewBox="0 0 512 512" style="enable-background:new 0 0 512 512;" xml:space="preserve">
<style type="text/css">
	.st0{fill:#00C8B9;}
</style>
<path class="st0" d="M86.4,86.4c47-47.3,103.5-71,169.6-71c66.1,0,122.6,23.7,169.6,71c47,47.3,70.4,104,70.4,170.1
	c0,66.1-23.5,122.6-70.4,169.6c-47,47-103.5,70.4-169.6,70.4c-66.1,0-122.6-23.5-169.6-70.4c-47-47-70.4-103.5-70.4-169.6
	C16,190.5,39.5,133.8,86.4,86.4z M192.5,428c3.8,4.6,6.5,7,8.3,7c1.8,0,6.2-7.2,13.4-21.7c7.1-14.5,14.5-29.6,22-45.3
	c7.5-15.7,11.9-24.6,13.1-26.5c1.2-2,4.1-5.2,8.6-9.6c4.5-4.5,9.3-9.1,14.5-13.9c5.2-4.8,8.6-7.9,10.2-9.4c1.6-1.4,2.5-7.8,2.7-19
	c0.2-11.3-1-19.2-3.5-23.8c-2.1-4.6-10.5-13.6-25.2-26.8c-14.6-13.2-23.4-20.1-26.2-20.6c-2.9-0.5-12.9,0.2-30,2.1
	c-17.1,2-29.6,2.1-37.2,0.3c-7.7-1.8-24.4-12.3-50.1-31.6l-12.9-9.6c19.6-0.7,30.4-1.7,32.4-2.9c2-1.2,5.4-7.7,10.2-19.3
	c4.8-11.6,8.2-18.4,10.2-20.4c2-2,4.1-3.7,6.4-5.1c2.3-1.4,6.3-3.6,12.1-6.4c5.7-2.9,11.1-5.6,16.1-8.3c5-2.7,17.6-8.5,37.8-17.4
	c20.2-8.9,31-14.3,32.4-16.1c1.4-3.6,1.9-8.6,1.3-15c-1.1-12.5-3.3-18.7-6.7-18.7h-1.1c-45.4,0.4-85.9,14.1-121.6,41.3
	c-35.7,27.1-60.2,62-73.4,104.5c19.5,6.3,37.9,13,55.2,20.1c17.1,7.3,26.2,12,27.3,13.9c1.1,2-0.1,6.9-3.5,14.7
	c-3.4,7.9-5.2,12.7-5.4,14.5c-0.2,1.8,1.3,7.6,4.6,17.4c3.2,9.8,5.5,15.7,7,17.7c1.4,2,6.4,6,15,12.1c8.6,6.1,13.6,10.2,15,12.3
	c1.4,2.1,3.8,18.5,7.2,49c3.4,30.5,5.6,47.1,6.7,49.8C186.4,419.7,188.8,423.3,192.5,428z M448.9,310.1c3.2,0,5.4-1.2,6.4-3.7
	c4.3-11.8,6.4-28.4,6.4-49.8c0-62.1-24.1-114.5-72.3-157c-4.6-3.9-18.1-7.3-40.4-10.2c-22.3-2.9-36-2.3-41,1.6
	c-5.4,5.4-7.7,11.6-7,18.7c0,1.1,7.3,8.1,22,21.2c14.6,13,21.8,21.2,21.4,24.4c-0.4,3.2-4.8,9.6-13.4,19.3
	c-8.6,9.6-12.9,15.4-12.9,17.4c0,2,3.8,6.4,11.3,13.4c7.5,7,12.8,11.3,15.8,12.9c3,1.6,13.3,5.9,30.8,12.9
	c17.5,7,27.3,11.3,29.5,13.1c6.8,6.4,18.7,26.8,35.9,61.1C443.1,308.5,445.6,310.1,448.9,310.1z"/>
</svg>
