<?xml version="1.0" encoding="utf-8"?>
<svg version="1.1" id="Layer_1" xmlns="http://www.w3.org/2000/svg" xmlns:xlink="http://www.w3.org/1999/xlink" x="0px" y="0px"
	 viewBox="0 0 311 60" style="enable-background:new 0 0 311 60;" xml:space="preserve">
<g>
	<g>
		<path fill="#0000A7" d="M104.7,30v1.8c0,1.7-0.1,3.2-0.2,4.8c-0.2,2.3-0.6,4.4-1.2,6.3c-1,3-2.6,5.7-4.8,8.3
			c-5.1,5.8-11.7,8.7-19.6,8.7c-7.7,0-14.4-2.8-19.9-8.4c-3-3.1-5.2-6.5-6.6-10.2l0,0l-6.2,0.6l0,0l7.6,17h-9.1l-7-16.3l-22.1,2
			L9,58.8H0L27.4,0l13.4,29.8l0.1,0.2L33.1,32L33,31.8l-5.7-13.1l-8.4,18.5l40.4-3.6c0.2,2.5,0.9,4.8,1.9,6.8c0,0,0,0,0,0
			c1.1,2.2,2.6,4.2,4.6,6c4.1,3.7,8.6,5.6,13.4,5.6c4.1,0,7.8-1.4,11.1-4.2c3.3-2.8,5.1-6.1,5.5-10v0l0-0.4l-0.1,0L79,38.8l7-7.6
			l18.7-1.7L104.7,30L104.7,30z"/>
		<path fill="#0000A7" d="M65,16.3c4-4,8.9-6.1,14.7-6.1c5.1,0,9.7,1.9,13.6,5.6l8.9-2.4c-3.4-3.9-6.9-6.7-10.5-8.5
			c-3.7-1.8-7.8-2.6-12.1-2.6c-8,0-14.9,2.8-20.5,8.4c-4.7,4.6-7.4,10.1-8.2,16.5l9-2.4C60.8,21.6,62.5,18.8,65,16.3z"/>
	</g>
	<g>
		<path fill="#0000A7" d="M119.3,3.7v47.5h16.3V59h-24.6V3.7H119.3z"/>
		<path fill="#0000A7" d="M133.8,31.1c0-7.8,2.9-14.5,8.6-20.1c5.7-5.6,12.5-8.4,20.5-8.4c7.9,0,14.6,2.8,20.3,8.5
			c5.7,5.6,8.5,12.4,8.5,20.3c0,8-2.8,14.7-8.5,20.2c-5.7,5.6-12.6,8.3-20.7,8.3c-7.1,0-13.6-2.5-19.2-7.4
			C137,47.1,133.8,40,133.8,31.1z M142.2,31.2c0,6.1,2.1,11.1,6.2,15.1c4.1,3.9,8.8,5.9,14.2,5.9c5.8,0,10.7-2,14.7-6
			c4-4.1,6-9,6-14.8c0-5.9-2-10.8-5.9-14.8c-3.9-4-8.8-6-14.5-6c-5.8,0-10.6,2-14.6,6C144.2,20.5,142.2,25.4,142.2,31.2z"/>
		<path fill="#0000A7" d="M197.9,59V3.7h8.3c3.7,0,6.7,0.3,8.8,0.9c2.2,0.6,4.1,1.5,5.6,2.9c1.6,1.4,2.8,3.2,3.7,5.3
			c0.9,2.1,1.4,4.3,1.4,6.4c0,4-1.5,7.3-4.5,10.1c2.9,1,5.3,2.8,6.9,5.3c1.7,2.5,2.6,5.4,2.6,8.7c0,4.3-1.5,8-4.6,11
			c-1.8,1.8-3.9,3.1-6.2,3.8c-2.5,0.7-5.6,1-9.4,1H197.9z M206.3,27.4h2.6c3.1,0,5.4-0.7,6.8-2.1c1.4-1.4,2.2-3.4,2.2-6.1
			c0-2.6-0.7-4.6-2.2-5.9c-1.5-1.3-3.6-2-6.4-2h-2.9V27.4z M206.3,51.2h5.2c3.8,0,6.5-0.7,8.3-2.2c1.9-1.6,2.8-3.6,2.8-6.1
			c0-2.4-0.9-4.4-2.7-6c-1.7-1.6-4.9-2.4-9.3-2.4h-4.2V51.2z"/>
		<path fill="#0000A7" d="M256.9,18.9L238.7,59h-9l27.4-58.8L283.5,59h-9.1L256.9,18.9z"/>
		<path fill="#0000A7" d="M294.7,3.7v47.5H311V59h-24.6V3.7H294.7z"/>
	</g>
</g>
</svg>
