<?xml version="1.0" encoding="iso-8859-1"?>
<!-- Generator: Adobe Illustrator 19.0.0, SVG Export Plug-In . SVG Version: 6.00 Build 0)  -->
<svg version="1.1" id="Capa_1" xmlns="http://www.w3.org/2000/svg" xmlns:xlink="http://www.w3.org/1999/xlink" x="0px" y="0px"
	 viewBox="0 0 512.139 512.139" style="enable-background:new 0 0 512.139 512.139;" xml:space="preserve">

		<g>
			<path fill="#00c8b9" d="M96.059,320.021h80.672v64h32v-96H96.059c-35.346,0.036-64.029-28.589-64.064-63.936
				c-0.031-30.461,21.412-56.723,51.264-62.784l12.8-2.592v-14.688c0.105-61.856,50.333-111.915,112.189-111.81
				c41.997,0.071,80.425,23.631,99.539,61.026l6.672,13.072l13.6-5.488c7.612-3.144,15.764-4.775,24-4.8c35.346,0,64,28.654,64,64
				c0.007,4.343-0.432,8.675-1.312,12.928l-4.08,19.792l20.192-0.56c0.896,0,1.776-0.128,1.2-0.16c26.51,0,48,21.49,48,48
				c0,26.51-21.49,48-48,48h-128v96h32v-64h96c44.183,0.044,80.036-35.737,80.08-79.92c0.038-38.076-26.765-70.903-64.08-78.48
				c0-0.528,0-1.072,0-1.6c-0.053-52.997-43.003-95.947-96-96c-7.608,0.005-15.187,0.924-22.576,2.736
				c-42.735-67.071-131.751-86.8-198.822-44.064C92.378,47.085,67.838,88.1,64.443,133.365
				C14.375,150.808-12.073,205.536,5.37,255.604C18.812,294.187,55.202,320.035,96.059,320.021z"/>
			<path fill="#00c8b9" d="M352.059,416.021h-80v-176h-32v176h-80v32h-96v32h96v32h192v-32h96v-32h-96V416.021z M320.059,480.021h-128v-32h128
				V480.021z"/>
			<rect fill="#00c8b9"  x="0.059" y="448.021" width="32" height="32"/>
			<rect fill="#00c8b9"  x="480.059" y="448.021" width="32" height="32"/>
			<rect fill="#00c8b9"  x="240.059" y="112.021" width="32" height="32"/>
			<rect fill="#00c8b9"  x="240.059" y="176.021" width="32" height="32"/>
		</g>
</svg>
