<?xml version="1.0" encoding="iso-8859-1"?>
<!-- Generator: Adobe Illustrator 19.0.0, SVG Export Plug-In . SVG Version: 6.00 Build 0)  -->
<svg version="1.1" id="Capa_1" xmlns="http://www.w3.org/2000/svg" xmlns:xlink="http://www.w3.org/1999/xlink" x="0px" y="0px"
	 viewBox="0 0 512 512" style="enable-background:new 0 0 512 512;" xml:space="preserve">

		<g>
			<path fill="#00c8b9" d="M512,400V32H224v32h256v304H32V64h32V32H0v368h192v48h-64v32h240v-32h-48v-48H512z M288,448h-64v-48h64V448z"/>
			<rect fill="#00c8b9" x="96" y="32" width="32" height="32"/>
			<rect fill="#00c8b9" x="160" y="32" width="32" height="32"/>
			<path fill="#00c8b9" d="M67.2,225.6C70.656,230.176,152,336,256,336s185.344-105.824,188.8-110.4l7.328-9.6l-7.328-9.6
				C441.344,201.824,360,96,256,96S70.656,201.824,67.2,206.4l-7.328,9.6L67.2,225.6z M256,128c71.184,0,133.616,63.344,155.2,88
				c-21.536,24.688-83.808,88-155.2,88s-133.616-63.344-155.2-88C122.336,191.312,184.608,128,256,128z"/>
			<path fill="#00c8b9" d="M256,280c35.346,0,64-28.654,64-64c0-35.346-28.654-64-64-64c-35.346,0-64,28.654-64,64C192,251.346,220.654,280,256,280
				z M256,184c17.673,0,32,14.327,32,32s-14.327,32-32,32c-17.673,0-32-14.327-32-32S238.327,184,256,184z"/>
		</g>
</svg>
