<?xml version="1.0" encoding="iso-8859-1"?>
<!-- Generator: Adobe Illustrator 19.0.0, SVG Export Plug-In . SVG Version: 6.00 Build 0)  -->
<svg version="1.1" id="Capa_1" xmlns="http://www.w3.org/2000/svg" xmlns:xlink="http://www.w3.org/1999/xlink" x="0px" y="0px"
	 viewBox="0 0 512 512" style="enable-background:new 0 0 512 512;" xml:space="preserve">
		<g>
			<rect fill="#00c8b9" x="151.397" y="376.251" transform="matrix(0.7071 -0.7071 0.7071 0.7071 -228.3342 233.2547)" width="32" height="32"/>
			<rect fill="#00c8b9" x="106.142" y="331.004" transform="matrix(0.7071 -0.7071 0.7071 0.7071 -209.5942 188.0029)" width="32" height="32"/>
			<polygon fill="#00c8b9" points="296.656,345.808 166.192,215.344 242.736,138.816 106.128,2.208 0,93.184 0,247.488 76.896,324.368 
				99.52,301.744 32,234.24 32,107.904 104.464,45.792 197.488,138.816 120.944,215.344 296.656,391.056 373.184,314.512 
				466.208,407.552 404.096,480 277.76,480 212.656,414.896 190.016,437.52 264.512,512 418.816,512 509.792,405.856 
				373.184,269.264 			"/>
			<path fill="#00c8b9" d="M256,0v230.624L326.624,160H512V0H256z M480,128H313.376L288,153.376V32h192V128z"/>
			<rect fill="#00c8b9" x="336" y="64" width="32" height="32"/>
			<rect fill="#00c8b9" x="400" y="64" width="32" height="32"/>
</g>
</svg>
