<?xml version="1.0" encoding="iso-8859-1"?>
<!-- Generator: Adobe Illustrator 19.0.0, SVG Export Plug-In . SVG Version: 6.00 Build 0)  -->
<svg version="1.1" id="Capa_1" xmlns="http://www.w3.org/2000/svg" xmlns:xlink="http://www.w3.org/1999/xlink" x="0px" y="0px"
	 viewBox="0 0 512 512" style="enable-background:new 0 0 512 512;" xml:space="preserve">
		<g>
			<rect fill="#00c8b9" x="224" y="384" width="32" height="32"/>
			<rect fill="#00c8b9" x="224" y="224" width="32" height="32"/>
			<path fill="#00c8b9"  d="M0,0v512h512V0H0z M480,480H32V352h32v96h32v-96h32v96h32v-96h320V480z M480,320H32V192h32v96h32v-96h32v96h32v-96h320
				V320z M480,160H32V32h32v96h32V32h32v96h32V32h320V160z"/>
			<rect fill="#00c8b9" x="224" y="64" width="32" height="32"/>
			<rect fill="#00c8b9" x="288" y="384" width="160" height="32"/>
			<rect fill="#00c8b9" x="288" y="224" width="160" height="32"/>
			<rect fill="#00c8b9" x="288" y="64" width="160" height="32"/>
		</g>
</svg>
