<?xml version="1.0" encoding="iso-8859-1"?>
<!-- Generator: Adobe Illustrator 19.0.0, SVG Export Plug-In . SVG Version: 6.00 Build 0)  -->
<svg version="1.1" id="Capa_1" xmlns="http://www.w3.org/2000/svg" xmlns:xlink="http://www.w3.org/1999/xlink" x="0px" y="0px"
	 viewBox="0 0 498.624 498.624" style="enable-background:new 0 0 498.624 498.624;" xml:space="preserve">
		<g>
			<polygon fill="#00c8b9"  points="216.128,283.584 147.312,228.528 127.312,253.52 218.496,326.464 325.888,219.072 303.264,196.448 			"/>
			<rect fill="#00c8b9"  x="332.515" y="157.864" transform="matrix(0.7071 0.7071 -0.7071 0.7071 225.0176 -195.5135)" width="32" height="32"/>
			<path fill="#00c8b9" d="M249.312,0l-192,69.824v52.208h32V92.224l160-58.176l160,58.176v212.8c0,67.984-109.856,134.48-160,158.4
				c-50.144-23.888-160-90.384-160-158.4v-24h-32v24c0,106.336,177.888,187.2,185.456,190.608l6.544,2.992l6.544-2.928
				c7.568-3.472,185.456-84.336,185.456-190.672v-235.2L249.312,0z"/>
			<rect fill="#00c8b9"  x="57.312" y="153.024" width="32" height="32"/>
			<rect fill="#00c8b9" x="57.312" y="217.024" width="32" height="32"/>
		</g>
</svg>
