<?xml version="1.0" encoding="iso-8859-1"?>
<!-- Generator: Adobe Illustrator 19.0.0, SVG Export Plug-In . SVG Version: 6.00 Build 0)  -->
<svg version="1.1" id="Capa_1" xmlns="http://www.w3.org/2000/svg" xmlns:xlink="http://www.w3.org/1999/xlink" x="0px" y="0px"
	 viewBox="0 0 511.993 511.993" style="enable-background:new 0 0 511.993 511.993;" xml:space="preserve">
		<g>
			<path fill="#00c8b9" d="M323.769,9.082c-10.983-3.003-22.155-5.269-33.44-6.784l-4.24,31.712c9.868,1.34,19.638,3.323,29.248,5.936
				L323.769,9.082z"/>
			<path fill="#00c8b9"  d="M256.297,32.01v-2.016L255.993,0.01c-11.236,0.004-22.459,0.736-33.6,2.192l4.16,31.728
				C236.416,32.651,246.352,32.01,256.297,32.01z"/>
			<path fill="#00c8b9" d="M326.217,336.01h-70.224v112h114.752c-100.749,60.731-231.349,32.713-298.32-64h119.568v-91.536l-44.896-14.96
				l10.496-41.92l120.304-51.584l-44.016-88h-134.4c27.238-26.832,60.928-46.196,97.824-56.224L188.889,8.89
				C52.459,45.99-28.065,186.664,9.035,323.094s177.774,216.954,314.204,179.855c91.58-24.903,161.868-98.427,182.626-191.035
				l0.384-23.904h-166.32L326.217,336.01z M31.993,256.01c0.055-45.805,14.18-90.487,40.464-128h141.648l19.984,40l-103.696,44.416
				l-21.504,86.08l51.104,17.04v36.464H53.913C39.522,322.051,32.031,289.246,31.993,256.01z M364.057,320.01h106.656
				c-10.95,36.462-31.055,69.512-58.4,96h-124.32v-48h62.4L364.057,320.01z"/>
			<path fill="#00c8b9" d="M495.993,96.01v-16c0-44.183-35.817-80-80-80c-44.183,0-80,35.817-80,80v16h-16v160h192v-160H495.993z M367.993,80.01
				c0-26.51,21.49-48,48-48c26.51,0,48,21.49,48,48v16h-96V80.01z M479.993,224.01h-128v-96h128V224.01z"/>
			<rect fill="#00c8b9" x="399.993" y="160.01" width="32" height="32"/>
		</g>
</svg>
