<?xml version="1.0" encoding="utf-8"?>
<!-- Generator: Adobe Illustrator 23.1.1, SVG Export Plug-In . SVG Version: 6.00 Build 0)  -->
<svg version="1.1" class="social-icons"  xmlns="http://www.w3.org/2000/svg" xmlns:xlink="http://www.w3.org/1999/xlink" x="0px" y="0px"
	 viewBox="0 0 30 30" style="enable-background:new 0 0 30 30;" xml:space="preserve">
<path fill-rule="evenodd" clip-rule="evenodd" d="M23.7,21.6h-3.2v-5.2c0-1.3-0.5-2.2-1.6-2.2c-0.9,0-1.4,0.6-1.7,1.2c-0.1,0.2-0.1,0.5-0.1,0.8v5.4h-3.2
	c0,0,0-8.8,0-9.7h3.2v1.4c0.4-0.7,1.2-1.6,2.9-1.6c2.1,0,3.7,1.4,3.7,4.4V21.6z M10.4,10.6L10.4,10.6c-1.1,0-1.8-0.7-1.8-1.7
	c0-0.9,0.7-1.7,1.8-1.7c1.1,0,1.8,0.7,1.8,1.7C12.2,9.9,11.5,10.6,10.4,10.6L10.4,10.6z M8.8,21.6H12v-9.7H8.8V21.6z M15.3,0.6
	C7.3,0.6,0.8,7.1,0.8,15c0,8,6.5,14.4,14.5,14.4S29.8,23,29.8,15C29.8,7.1,23.3,0.6,15.3,0.6L15.3,0.6z"/>
</svg>
